<svg xmlns="http://www.w3.org/2000/svg" viewBox="0 0 496.1 104" width="496.1" height="104">
<g transform="translate(0,17.0)"><polyline points="24,34 38,66 50,44 62,66 76,34" fill="none" stroke="#CBA265" stroke-width="3.4" stroke-linecap="round" stroke-linejoin="round"></polyline><circle cx="24" cy="34" r="4" fill="#CBA265"></circle><circle cx="38" cy="66" r="4" fill="#CBA265"></circle><circle cx="50" cy="44" r="5.4" fill="none" stroke="#CBA265" stroke-width="2.6"></circle><circle cx="62" cy="66" r="4" fill="#CBA265"></circle><circle cx="76" cy="34" r="4" fill="#CBA265"></circle></g>
<g transform="translate(94.0,68.8) scale(0.02400,-0.02400)" fill="#ECE5D8"><path transform="translate(0,0)" d="M1016 1127 1113 1099 814 168Q806 147 802.0 128.0Q798 109 798 84V47Q798 24 786.0 12.0Q774 0 754 0H552Q531 0 518.5 12.0Q506 24 506 47V84Q506 101 503.0 114.5Q500 128 491 156L155 1244Q147 1272 134.5 1284.5Q122 1297 101 1304L56 1317Q36 1324 28.0 1335.0Q20 1346 20 1360Q20 1379 33.5 1389.5Q47 1400 75 1400H516Q544 1400 557.5 1389.0Q571 1378 571 1359Q571 1329 534 1320L464 1308Q439 1303 435.0 1284.5Q431 1266 442 1228L771 150L679 82ZM1662 1359Q1662 1378 1675.5 1389.0Q1689 1400 1717 1400H2022Q2051 1400 2064.0 1389.0Q2077 1378 2077 1359Q2077 1345 2069.0 1336.0Q2061 1327 2037 1318L1998 1304Q1968 1292 1948.0 1266.5Q1928 1241 1913 1187L1612 168Q1604 139 1600.0 122.0Q1596 105 1596 84V47Q1596 24 1584.0 12.0Q1572 0 1552 0H1341Q1320 0 1307.5 12.0Q1295 24 1295 47V84Q1295 100 1294.0 115.0Q1293 130 1284 158L962 1244Q952 1279 942.5 1290.5Q933 1302 915 1307L871 1320Q851 1327 842.5 1336.0Q834 1345 834 1359Q834 1378 848.0 1389.0Q862 1400 890 1400H1319Q1347 1400 1360.5 1389.0Q1374 1378 1374 1359Q1374 1344 1364.5 1334.0Q1355 1324 1334 1318L1267 1307Q1243 1301 1238.0 1285.5Q1233 1270 1245 1227L1561 151L1482 90L1809 1197Q1822 1244 1812.5 1269.5Q1803 1295 1757 1308L1698 1320Q1678 1326 1670.0 1335.5Q1662 1345 1662 1359Z"></path><path transform="translate(2091,0)" d="M411 526Q411 669 453.0 767.0Q495 865 562.0 915.0Q629 965 705 965Q798 965 849.0 913.0Q900 861 900 766Q900 687 866.5 647.5Q833 608 780 608Q727 608 698.5 637.0Q670 666 670 718V753Q669 786 654.5 802.0Q640 818 606 818Q566 818 529.5 786.5Q493 755 470.0 691.0Q447 627 447 528ZM433 901 447 670V149Q447 122 458.0 109.0Q469 96 498 91L586 78Q608 75 619.0 65.0Q630 55 630 38Q630 20 617.0 10.0Q604 0 579 0H134Q108 0 96.0 10.0Q84 20 84 37Q84 51 92.5 60.5Q101 70 120 76L163 86Q182 92 191.5 105.5Q201 119 201 148V744Q201 768 193.0 778.5Q185 789 168 792L108 795Q90 799 82.5 807.0Q75 815 75 828Q75 842 84.5 851.5Q94 861 118 870L291 932Q335 948 356.0 953.5Q377 959 389 959Q409 959 419.5 945.5Q430 932 433 901Z"></path><path transform="translate(3021,0)" d="M979 588Q979 538 950.0 511.5Q921 485 867 485H235V556H680Q730 556 730 600Q730 733 677.0 805.0Q624 877 535 877Q466 877 413.0 836.5Q360 796 330.5 720.5Q301 645 301 542Q301 345 394.0 245.5Q487 146 639 146Q733 146 802.5 186.0Q872 226 906 295Q921 313 930.5 319.5Q940 326 951 326Q965 326 972.0 313.0Q979 300 978 282Q973 199 918.5 129.0Q864 59 771.5 17.5Q679 -24 561 -24Q418 -24 308.5 35.0Q199 94 137.5 201.0Q76 308 76 452Q76 601 135.5 716.5Q195 832 305.0 898.5Q415 965 568 965Q696 965 788.0 917.0Q880 869 929.5 784.0Q979 699 979 588Z"></path><path transform="translate(4075,0)" d="M447 901V149Q447 120 456.0 106.0Q465 92 484 86L525 76Q556 64 556 39Q556 0 505 0H134Q108 0 96.0 10.0Q84 20 84 37Q84 51 92.5 60.5Q101 70 119 76L163 86Q182 92 191.5 105.5Q201 119 201 148V746Q201 770 193.0 780.5Q185 791 168 794L108 797Q90 800 82.5 808.5Q75 817 75 829Q75 844 84.0 853.5Q93 863 118 871L294 935Q328 947 349.5 953.0Q371 959 389 959Q418 959 432.5 943.0Q447 927 447 901ZM417 684 375 727 416 763Q538 872 625.5 918.5Q713 965 793 965Q915 965 982.0 884.0Q1049 803 1064 667L1122 152Q1126 121 1134.5 106.5Q1143 92 1163 86L1202 76Q1220 70 1228.5 60.5Q1237 51 1237 37Q1237 20 1225.5 10.0Q1214 0 1188 0H813Q762 0 762 39Q762 64 793 76L835 86Q856 92 866.5 107.0Q877 122 874 152L819 630Q808 723 770.5 770.0Q733 817 662 817Q617 817 566.5 792.5Q516 768 459 719Z"></path><path transform="translate(5330,0)" d="M486 149Q486 122 497.5 106.5Q509 91 534 88L636 77Q658 75 668.0 64.0Q678 53 678 38Q678 0 629 0H149Q127 0 114.5 10.0Q102 20 102 36Q102 52 112.0 62.0Q122 72 143 77L189 87Q216 94 228.0 108.5Q240 123 240 148V765Q240 786 230.5 799.0Q221 812 193 821L140 837Q108 849 96.5 860.0Q85 871 85 885Q85 900 96.5 909.0Q108 918 131 918H296L241 884V917Q241 947 225.5 975.0Q210 1003 189.5 1033.5Q169 1064 153.5 1102.0Q138 1140 138 1192Q138 1310 223.0 1383.0Q308 1456 457 1456Q552 1456 618.5 1425.5Q685 1395 719.5 1344.0Q754 1293 754 1233Q754 1175 723.5 1144.0Q693 1113 644 1113Q591 1113 559.5 1146.0Q528 1179 528 1234V1288Q528 1338 501.5 1363.5Q475 1389 427 1389Q369 1388 338.5 1352.5Q308 1317 308 1251Q308 1206 324.0 1170.0Q340 1134 364.5 1103.5Q389 1073 413.0 1044.5Q437 1016 453.0 986.0Q469 956 469 922V878L439 918H674Q696 918 708.0 909.5Q720 901 720 885Q720 861 696.5 845.5Q673 830 621 830H486Z"></path><path transform="translate(6091,0)" d="M447 901V149Q447 120 456.5 106.0Q466 92 484 86L526 76Q544 70 553.0 60.5Q562 51 562 37Q562 20 550.0 10.0Q538 0 512 0H134Q108 0 96.0 10.0Q84 20 84 37Q84 51 92.5 60.5Q101 70 120 76L163 86Q182 92 191.5 105.5Q201 119 201 148V746Q201 770 193.0 780.5Q185 791 168 794L108 797Q90 800 82.5 808.5Q75 817 75 829Q75 844 84.0 853.5Q93 863 118 871L294 935Q330 948 351.0 953.5Q372 959 388 959Q417 959 432.0 943.0Q447 927 447 901ZM302 1128Q229 1128 185.0 1166.5Q141 1205 141 1267Q141 1329 185.0 1366.5Q229 1404 302 1404Q375 1404 419.5 1366.0Q464 1328 464 1267Q464 1205 419.5 1166.5Q375 1128 302 1128Z"></path><path transform="translate(6709,0)" d="M979 588Q979 538 950.0 511.5Q921 485 867 485H235V556H680Q730 556 730 600Q730 733 677.0 805.0Q624 877 535 877Q466 877 413.0 836.5Q360 796 330.5 720.5Q301 645 301 542Q301 345 394.0 245.5Q487 146 639 146Q733 146 802.5 186.0Q872 226 906 295Q921 313 930.5 319.5Q940 326 951 326Q965 326 972.0 313.0Q979 300 978 282Q973 199 918.5 129.0Q864 59 771.5 17.5Q679 -24 561 -24Q418 -24 308.5 35.0Q199 94 137.5 201.0Q76 308 76 452Q76 601 135.5 716.5Q195 832 305.0 898.5Q415 965 568 965Q696 965 788.0 917.0Q880 869 929.5 784.0Q979 699 979 588Z"></path><path transform="translate(7763,0)" d="M447 1423V149Q447 120 456.5 106.0Q466 92 484 86L526 76Q545 70 553.5 60.5Q562 51 562 37Q562 20 550.0 10.0Q538 0 512 0H134Q108 0 96.0 10.0Q84 20 84 37Q84 51 93.0 60.5Q102 70 120 76L163 86Q182 92 191.5 105.5Q201 119 201 148V1268Q201 1292 193.5 1302.5Q186 1313 168 1316L108 1319Q90 1323 82.5 1331.0Q75 1339 75 1352Q75 1366 84.0 1375.5Q93 1385 118 1394L294 1457Q330 1470 351.0 1475.5Q372 1481 388 1481Q417 1481 432.0 1465.5Q447 1450 447 1423Z"></path><path transform="translate(8386,0)" d="M808 165 800 171V1268Q800 1292 792.5 1302.5Q785 1313 768 1316L708 1319Q690 1323 682.5 1331.0Q675 1339 675 1352Q675 1366 684.0 1375.5Q693 1385 717 1394L894 1457Q928 1470 949.5 1475.5Q971 1481 989 1481Q1018 1481 1032.0 1465.5Q1046 1450 1046 1423V149Q1046 120 1055.5 106.0Q1065 92 1084 86L1125 76Q1144 70 1153.0 60.5Q1162 51 1162 37Q1162 20 1149.5 10.0Q1137 0 1111 0H918Q869 0 838.5 29.5Q808 59 808 110ZM76 447Q76 606 139.0 722.0Q202 838 309.5 901.5Q417 965 549 965Q668 965 760.5 908.0Q853 851 911 744L852 690Q802 776 735.5 819.5Q669 863 592 863Q518 863 459.5 821.0Q401 779 367.0 693.0Q333 607 333 474Q333 350 366.0 267.5Q399 185 455.5 143.5Q512 102 585 102Q662 102 729.5 147.5Q797 193 853 284L892 230Q814 110 711.5 43.0Q609 -24 487 -24Q368 -24 275.5 36.5Q183 97 129.5 203.0Q76 309 76 447Z"></path><path transform="translate(9613,0)" d=""></path></g>
<g transform="translate(335.3,68.8) scale(0.02400,-0.02400)" fill="#CBA265"><path transform="translate(0,0)" d="M1016 1127 1113 1099 814 168Q806 147 802.0 128.0Q798 109 798 84V47Q798 24 786.0 12.0Q774 0 754 0H552Q531 0 518.5 12.0Q506 24 506 47V84Q506 101 503.0 114.5Q500 128 491 156L155 1244Q147 1272 134.5 1284.5Q122 1297 101 1304L56 1317Q36 1324 28.0 1335.0Q20 1346 20 1360Q20 1379 33.5 1389.5Q47 1400 75 1400H516Q544 1400 557.5 1389.0Q571 1378 571 1359Q571 1329 534 1320L464 1308Q439 1303 435.0 1284.5Q431 1266 442 1228L771 150L679 82ZM1662 1359Q1662 1378 1675.5 1389.0Q1689 1400 1717 1400H2022Q2051 1400 2064.0 1389.0Q2077 1378 2077 1359Q2077 1345 2069.0 1336.0Q2061 1327 2037 1318L1998 1304Q1968 1292 1948.0 1266.5Q1928 1241 1913 1187L1612 168Q1604 139 1600.0 122.0Q1596 105 1596 84V47Q1596 24 1584.0 12.0Q1572 0 1552 0H1341Q1320 0 1307.5 12.0Q1295 24 1295 47V84Q1295 100 1294.0 115.0Q1293 130 1284 158L962 1244Q952 1279 942.5 1290.5Q933 1302 915 1307L871 1320Q851 1327 842.5 1336.0Q834 1345 834 1359Q834 1378 848.0 1389.0Q862 1400 890 1400H1319Q1347 1400 1360.5 1389.0Q1374 1378 1374 1359Q1374 1344 1364.5 1334.0Q1355 1324 1334 1318L1267 1307Q1243 1301 1238.0 1285.5Q1233 1270 1245 1227L1561 151L1482 90L1809 1197Q1822 1244 1812.5 1269.5Q1803 1295 1757 1308L1698 1320Q1678 1326 1670.0 1335.5Q1662 1345 1662 1359Z"></path><path transform="translate(2091,0)" d="M593 965Q744 965 858.5 902.0Q973 839 1037.5 727.0Q1102 615 1102 469Q1102 328 1036.0 216.5Q970 105 854.0 40.5Q738 -24 585 -24Q434 -24 320.0 39.5Q206 103 141.5 215.0Q77 327 77 472Q77 615 142.5 726.0Q208 837 324.0 901.0Q440 965 593 965ZM664 71Q740 82 786.5 136.5Q833 191 847.5 284.5Q862 378 839 508Q817 637 770.0 722.0Q723 807 657.5 844.5Q592 882 514 870Q439 858 392.0 804.0Q345 750 331.0 656.5Q317 563 339 433Q361 304 408.0 219.0Q455 134 520.5 96.5Q586 59 664 71Z"></path><path transform="translate(3270,0)" d="M411 526Q411 669 453.0 767.0Q495 865 562.0 915.0Q629 965 705 965Q798 965 849.0 913.0Q900 861 900 766Q900 687 866.5 647.5Q833 608 780 608Q727 608 698.5 637.0Q670 666 670 718V753Q669 786 654.5 802.0Q640 818 606 818Q566 818 529.5 786.5Q493 755 470.0 691.0Q447 627 447 528ZM433 901 447 670V149Q447 122 458.0 109.0Q469 96 498 91L586 78Q608 75 619.0 65.0Q630 55 630 38Q630 20 617.0 10.0Q604 0 579 0H134Q108 0 96.0 10.0Q84 20 84 37Q84 51 92.5 60.5Q101 70 120 76L163 86Q182 92 191.5 105.5Q201 119 201 148V744Q201 768 193.0 778.5Q185 789 168 792L108 795Q90 799 82.5 807.0Q75 815 75 828Q75 842 84.5 851.5Q94 861 118 870L291 932Q335 948 356.0 953.5Q377 959 389 959Q409 959 419.5 945.5Q430 932 433 901Z"></path><path transform="translate(4200,0)" d="M129 0Q104 0 94.0 10.0Q84 20 84 37Q84 51 92.5 60.5Q101 70 120 76L163 86Q182 92 191.5 105.5Q201 119 201 148V1268Q201 1292 193.0 1302.5Q185 1313 168 1316L108 1319Q90 1323 82.5 1331.0Q75 1339 75 1352Q75 1366 84.0 1375.5Q93 1385 118 1394L294 1457Q328 1470 349.5 1475.5Q371 1481 389 1481Q418 1481 432.5 1465.5Q447 1450 447 1423V149Q447 120 456.0 106.0Q465 92 484 86L525 76Q556 64 556 39Q556 0 505 0ZM371 434 790 776Q825 804 821.5 827.5Q818 851 779 861L741 869Q722 875 715.0 883.5Q708 892 708 906Q708 924 721.0 933.5Q734 943 757 943H1096Q1119 943 1132.0 933.5Q1145 924 1145 907Q1145 890 1134.0 879.0Q1123 868 1088 860Q1038 850 1000.5 829.5Q963 809 904 762L397 355ZM702 659 1056 152Q1082 117 1101.0 103.5Q1120 90 1156 80Q1177 71 1187.0 60.0Q1197 49 1197 35Q1197 19 1184.0 9.5Q1171 0 1149 0H757Q736 0 724.0 10.0Q712 20 712 37Q712 49 719.0 57.5Q726 66 742 71L778 80Q808 87 810.0 103.5Q812 120 784 161L535 516Z"></path><path transform="translate(5410,0)" d="M503 58Q575 58 615.5 95.0Q656 132 656 189Q656 224 639.5 253.0Q623 282 578.5 306.0Q534 330 451 350Q305 382 223.5 429.0Q142 476 110.0 537.5Q78 599 78 672Q78 805 172.5 885.0Q267 965 445 965Q510 965 551.5 954.0Q593 943 620.0 931.5Q647 920 668 920Q689 920 700.0 931.5Q711 943 721.5 954.0Q732 965 752 965Q766 965 776.5 956.0Q787 947 795 923L864 717Q875 686 871.0 666.0Q867 646 846 638Q825 630 810.0 637.5Q795 645 781 666Q737 747 685.0 794.5Q633 842 576.0 862.0Q519 882 458 882Q368 882 323.0 845.0Q278 808 278 745Q278 708 297.0 677.5Q316 647 367.5 621.5Q419 596 514 573Q640 544 714.0 501.0Q788 458 820.5 397.5Q853 337 853 256Q853 173 811.0 109.5Q769 46 693.0 11.0Q617 -24 516 -24Q453 -24 414.5 -11.5Q376 1 350.5 13.5Q325 26 301 26Q280 26 267.0 13.5Q254 1 242.0 -11.5Q230 -24 213 -24Q199 -24 190.0 -14.5Q181 -5 176 18L135 213Q128 251 132.0 269.0Q136 287 155 295Q175 303 190.0 293.0Q205 283 221 256Q280 150 353.0 104.0Q426 58 503 58Z"></path></g>
</svg>